<svg width="79" height="78" viewBox="0 0 79 78" fill="none" xmlns="http://www.w3.org/2000/svg">
<line x1="31.5" y1="13" x2="31.5" y2="63" stroke="black" stroke-width="3"/>
<line x1="26.5" y1="27" x2="26.5" y2="49" stroke="black" stroke-width="3"/>
<line x1="26.5" y1="27" x2="26.5" y2="49" stroke="black" stroke-width="3"/>
<line x1="21.5" y1="30" x2="21.5" y2="47" stroke="black" stroke-width="3"/>
<line x1="16.5" y1="22" x2="16.5" y2="53" stroke="black" stroke-width="3"/>
<line x1="11.5" y1="31" x2="11.5" y2="46" stroke="black" stroke-width="3"/>
<line x1="6.5" y1="33" x2="6.5" y2="44" stroke="black" stroke-width="3"/>
<line x1="1.5" y1="37" x2="1.5" y2="41" stroke="black" stroke-width="3"/>
<line x1="36.5" x2="36.5" y2="78" stroke="black" stroke-width="3"/>
<line x1="41.5" y1="14" x2="41.5" y2="64" stroke="black" stroke-width="3"/>
<line x1="46.5" y1="26" x2="46.5" y2="53" stroke="black" stroke-width="3"/>
<line x1="51.5" y1="29" x2="51.5" y2="49" stroke="black" stroke-width="3"/>
<line x1="56.5" y1="33" x2="56.5" y2="46" stroke="black" stroke-width="3"/>
<line x1="61.5" y1="35" x2="61.5" y2="44" stroke="black" stroke-width="3"/>
<path d="M67 23V54.5M72 29.5V51M77 34.5V47" stroke="black" stroke-width="3"/>
</svg>
